<svg width="39" height="39" viewBox="0 0 39 39" fill="none" xmlns="http://www.w3.org/2000/svg">
<path d="M3.26196 20.3427L4.7374 21.7502C5.0866 22.0833 5.65281 22.0833 6.00209 21.7502L19.5 8.90493L32.998 21.7501C33.3472 22.0832 33.9134 22.0832 34.2627 21.7501L35.7381 20.3427C36.0873 20.0095 36.0873 19.4694 35.7381 19.1362L20.1323 4.24983C19.7831 3.91672 19.2169 3.91672 18.8676 4.24983L3.26196 19.1363C2.91268 19.4695 2.91268 20.0096 3.26196 20.3427Z" fill="#020035"/>
<path d="M3.26196 33.3427L4.7374 34.7502C5.0866 35.0833 5.65281 35.0833 6.00209 34.7502L19.5 21.9049L32.998 34.7501C33.3472 35.0832 33.9134 35.0832 34.2627 34.7501L35.7381 33.3427C36.0873 33.0095 36.0873 32.4694 35.7381 32.1362L20.1323 17.2498C19.7831 16.9167 19.2169 16.9167 18.8676 17.2498L3.26196 32.1363C2.91268 32.4695 2.91268 33.0096 3.26196 33.3427Z" fill="#020035"/>
</svg>
